<?xml version="1.0" standalone="no"?>
<!DOCTYPE svg PUBLIC "-//W3C//DTD SVG 20010904//EN"
 "http://www.w3.org/TR/2001/REC-SVG-20010904/DTD/svg10.dtd">
<svg version="1.0" xmlns="http://www.w3.org/2000/svg"
 width="300.000000pt" height="300.000000pt" viewBox="0 0 300.000000 300.000000"
 preserveAspectRatio="xMidYMid meet">
<metadata>
Created by potrace 1.14, written by Peter Selinger 2001-2017
</metadata>
<g transform="translate(0.000000,300.000000) scale(0.100000,-0.100000)"
fill="#000000" stroke="none">
<path d="M342 2983 c-9 -10 -40 -36 -67 -58 -28 -22 -61 -50 -75 -63 -14 -14
-47 -43 -74 -66 -120 -100 -126 -107 -126 -142 0 -36 10 -42 32 -21 14 12 111
95 162 138 16 13 46 40 67 59 20 19 54 49 76 67 21 18 55 48 76 67 l38 36 -45
0 c-30 0 -52 -6 -64 -17z"/>
<path d="M2975 2990 c3 -5 10 -10 16 -10 5 0 9 5 9 10 0 6 -7 10 -16 10 -8 0
-12 -4 -9 -10z"/>
<path d="M1187 2793 c-13 -21 -33 -63 -46 -93 -12 -30 -26 -64 -32 -75 -11
-24 -29 -104 -36 -161 -4 -33 -8 -41 -21 -37 -16 4 -31 -15 -48 -59 -7 -20
-15 -21 -92 -18 -75 3 -252 -41 -252 -62 0 -5 -7 -8 -15 -8 -8 0 -15 -5 -15
-11 0 -7 10 -9 28 -5 15 4 78 10 140 13 98 5 112 4 112 -10 0 -23 -134 -144
-212 -192 -9 -5 -40 -26 -70 -46 -29 -20 -73 -47 -98 -60 -25 -13 -47 -27 -50
-30 -11 -15 -47 -12 -72 5 -42 28 -63 18 -61 -30 1 -35 -3 -42 -29 -57 -21
-12 -33 -14 -38 -7 -7 11 17 137 39 203 7 20 11 47 9 59 -3 21 -5 20 -24 -13
-26 -43 -94 -236 -94 -264 0 -12 -4 -25 -9 -30 -6 -6 -14 -62 -20 -125 -10
-126 -3 -232 25 -326 17 -61 98 -229 121 -252 27 -27 7 -50 -23 -27 -10 8 -27
15 -37 15 -10 0 -20 7 -23 15 -4 8 -11 15 -18 15 -6 0 -27 14 -46 31 -19 17
-51 43 -70 57 -19 14 -52 42 -72 61 l-38 35 0 -123 c0 -73 4 -120 9 -116 5 3
31 1 58 -5 41 -10 49 -9 59 5 21 29 49 14 52 -28 2 -21 -1 -37 -7 -37 -6 0
-11 -9 -11 -20 0 -11 -4 -20 -10 -20 -19 0 -61 -90 -67 -144 -7 -66 10 -104
91 -204 58 -72 151 -172 159 -172 5 0 42 -29 76 -61 10 -8 25 -18 34 -22 9 -3
17 -11 17 -17 0 -5 4 -10 10 -10 5 0 46 -20 90 -44 44 -25 90 -47 102 -51 13
-3 32 -10 43 -15 11 -5 43 -19 70 -30 l50 -22 -28 -10 c-20 -7 -40 -6 -74 6
-53 18 -96 20 -123 6 -13 -7 -24 -5 -41 8 -26 19 -112 62 -124 62 -4 0 -31 11
-59 24 -103 48 -145 66 -155 66 -6 0 -11 4 -11 8 0 4 -12 13 -27 19 -34 14
-110 60 -152 91 l-31 23 0 -45 c0 -44 2 -47 47 -76 44 -28 180 -96 263 -133
67 -30 193 -67 226 -67 45 0 44 -20 -1 -68 -34 -36 -52 -69 -42 -78 2 -2 123
-3 268 -2 l264 3 -62 44 c-35 24 -63 48 -63 52 0 5 10 13 22 20 16 9 34 8 77
-1 31 -8 61 -17 66 -21 6 -4 44 -15 85 -24 41 -10 110 -26 152 -36 43 -11 98
-19 123 -19 26 0 45 -5 45 -11 0 -12 268 -6 425 9 89 9 231 34 291 53 47 14
80 11 105 -11 23 -19 23 -21 7 -34 -10 -7 -18 -16 -18 -20 0 -3 51 -6 114 -6
82 0 116 4 118 12 4 10 10 10 32 0 19 -8 92 -12 241 -12 188 0 215 2 215 16 0
12 -8 14 -44 9 -34 -6 -44 -4 -49 9 -4 10 -19 16 -39 16 -18 0 -40 5 -48 10
-12 8 -9 12 18 22 17 7 32 16 32 20 0 4 7 8 15 8 8 0 23 9 32 20 10 11 22 20
28 20 26 1 55 39 55 74 0 20 -2 36 -4 36 -3 0 -40 -24 -83 -54 -43 -29 -97
-63 -120 -75 -39 -20 -73 -20 -73 0 0 15 -65 10 -86 -6 -38 -29 -60 -16 -106
64 -13 23 -28 41 -35 41 -6 0 -15 4 -18 10 -7 12 72 161 92 173 7 4 13 14 13
22 0 7 3 15 8 17 4 1 24 24 45 50 80 98 99 113 159 127 72 16 73 16 74 -10 2
-36 19 -44 64 -29 70 23 71 25 68 128 l-3 93 -34 -30 c-19 -17 -39 -31 -45
-31 -6 0 -28 -9 -49 -20 -20 -11 -44 -20 -52 -20 -8 0 -23 -4 -33 -9 -28 -14
-107 -30 -114 -23 -4 4 11 27 33 52 22 25 52 63 67 85 15 22 30 41 35 43 4 2
7 8 7 12 0 5 13 31 28 57 16 26 34 64 41 83 8 19 20 53 28 75 24 65 51 176 57
235 3 30 9 87 13 125 15 137 0 362 -26 388 -17 17 -20 -6 -23 -200 -2 -115 -7
-186 -14 -193 -8 -8 -21 -5 -48 11 -41 24 -56 46 -56 81 0 14 -11 48 -25 76
-25 52 -33 102 -16 102 5 0 17 12 26 27 17 25 17 27 0 39 -19 14 -53 3 -68
-22 -12 -21 -29 -17 -63 14 -108 96 -204 131 -360 132 l-92 0 -26 34 c-14 19
-26 41 -26 48 0 8 -9 40 -20 71 -14 41 -18 63 -11 75 17 32 87 47 221 47 112
0 130 -3 173 -24 27 -13 75 -50 106 -83 63 -63 91 -74 91 -33 0 29 -6 37 -69
100 -61 61 -126 93 -207 104 -93 13 -213 0 -268 -29 -63 -34 -76 -25 -76 54 0
44 8 87 25 134 25 68 32 122 18 122 -11 -1 -74 -107 -98 -165 -12 -27 -52 -98
-91 -158 -38 -59 -73 -115 -79 -124 -5 -9 -18 -26 -28 -37 -10 -12 -27 -37
-37 -56 -10 -19 -28 -46 -40 -60 -12 -14 -29 -38 -37 -55 -9 -16 -19 -32 -22
-35 -13 -11 -58 -97 -100 -192 -12 -27 -25 -48 -30 -48 -5 0 -7 36 -5 80 3 74
-5 102 -20 65 -8 -22 -10 -291 -2 -304 10 -16 -10 -13 -28 4 -8 8 -17 15 -21
15 -6 0 -59 47 -130 115 -78 75 -121 147 -178 295 -60 157 -81 272 -52 284 19
7 19 23 -1 61 -28 51 -28 138 0 285 31 171 45 231 56 251 11 22 24 89 16 89
-3 0 -16 -17 -29 -37z m-132 -471 c-9 -23 -24 3 -17 30 4 18 6 19 14 4 5 -10
7 -25 3 -34z m-15 -92 c16 -16 20 -34 20 -82 1 -35 5 -81 9 -103 20 -89 36
-145 43 -145 5 0 8 -11 8 -25 0 -31 -10 -32 -38 -2 -64 68 -171 110 -284 110
-43 0 -78 2 -78 6 0 6 15 19 105 89 28 21 70 60 95 87 25 26 53 56 63 67 22
23 32 23 57 -2z m1004 -52 c3 -13 10 -54 17 -92 6 -38 25 -94 40 -125 32 -62
37 -101 14 -101 -8 0 -15 -4 -15 -10 0 -5 -6 -10 -13 -10 -19 0 -157 -139
-157 -158 0 -10 -4 -22 -8 -28 -29 -32 -47 -114 -47 -209 0 -93 2 -105 32
-165 51 -101 121 -169 210 -203 77 -30 192 -49 272 -44 141 8 216 39 301 127
56 56 100 143 100 195 0 37 22 48 70 35 22 -6 43 -17 46 -25 7 -17 -32 -197
-52 -242 -8 -17 -14 -36 -14 -41 0 -15 -79 -172 -102 -202 -50 -67 -66 -86
-98 -117 -32 -30 -124 -83 -146 -83 -5 0 -17 -7 -27 -14 -23 -18 -12 -46 18
-46 13 0 27 -4 30 -10 3 -5 31 -10 61 -10 30 0 54 -3 54 -6 0 -3 -15 -20 -32
-38 -52 -53 -83 -89 -104 -121 -10 -16 -22 -32 -26 -35 -11 -9 -65 -131 -72
-166 -6 -28 -13 -33 -89 -57 -45 -14 -125 -35 -177 -47 -52 -12 -115 -26 -140
-31 -115 -26 -454 -21 -655 10 -138 21 -400 89 -430 112 -5 4 -27 10 -48 14
-20 4 -40 11 -43 16 -3 5 -11 9 -19 9 -8 0 -42 13 -77 29 -35 15 -74 33 -88
39 -14 6 -47 25 -75 42 -27 16 -57 33 -65 37 -15 7 -141 95 -167 117 -49 40
-93 92 -133 156 -29 47 -34 64 -34 115 1 53 6 70 49 143 41 71 52 83 69 77 94
-27 180 -46 203 -43 43 5 41 38 -4 84 -181 184 -250 373 -229 626 l8 85 49 21
c27 12 56 22 64 22 9 0 24 5 35 12 32 21 34 1 3 -49 -27 -44 -37 -77 -64 -216
-20 -96 14 -197 95 -284 51 -55 76 -72 156 -107 88 -37 207 -47 285 -23 77 23
170 86 228 154 10 11 31 58 47 104 24 66 32 109 37 198 l6 114 24 -29 c109
-133 204 -231 263 -272 45 -31 62 -37 109 -34 22 2 23 5 18 47 -6 38 -2 54 23
100 17 31 30 61 30 68 0 19 39 87 153 271 7 11 16 25 20 30 6 9 89 135 144
222 7 10 20 34 29 52 19 38 32 41 38 10z m-1147 -269 c145 -58 222 -146 239
-273 7 -50 -14 -216 -27 -216 -5 0 -9 -5 -9 -12 0 -6 -16 -35 -35 -63 -49 -71
-146 -134 -225 -145 -92 -13 -192 4 -264 44 -70 40 -126 86 -126 104 0 7 -4
12 -9 12 -5 0 -17 24 -26 53 -26 85 -11 231 34 323 21 43 104 124 127 124 7 0
19 7 28 15 8 8 38 20 67 25 29 6 55 12 57 15 10 10 141 5 169 -6z m1568 -92
c22 -7 65 -28 95 -48 54 -35 130 -110 130 -127 0 -4 5 -13 12 -20 20 -20 48
-124 48 -178 0 -48 -9 -81 -46 -160 -21 -48 -99 -129 -141 -149 -21 -9 -51
-23 -67 -31 -33 -16 -255 -20 -284 -5 -9 5 -40 19 -69 31 -54 24 -126 85 -157
133 -31 50 -56 138 -56 199 0 58 30 168 53 194 19 21 31 36 56 73 27 37 109
80 156 82 17 0 39 4 50 9 30 13 175 11 220 -3z"/>
<path d="M1238 934 c-15 -15 21 -84 68 -130 43 -43 64 -54 120 -70 64 -17 71
-17 131 -1 36 9 75 28 91 42 15 14 29 25 32 25 12 0 42 70 37 84 -9 24 -19 20
-73 -29 -59 -54 -100 -69 -169 -62 -68 7 -100 24 -171 92 -32 30 -59 55 -59
55 -1 0 -4 -3 -7 -6z"/>
<path d="M640 1783 c-42 -22 -59 -38 -78 -76 -35 -68 -24 -118 36 -164 58 -44
127 -46 186 -5 41 28 85 100 86 140 0 31 -35 97 -62 116 -35 25 -107 20 -168
-11z"/>
<path d="M2345 1711 c-99 -21 -156 -104 -126 -184 16 -43 74 -91 123 -104 85
-23 156 20 183 110 13 45 13 52 -5 92 -32 70 -98 103 -175 86z"/>
<path d="M1 644 c-1 -61 -1 -61 59 -126 33 -36 71 -69 85 -72 14 -4 25 -11 25
-16 0 -5 15 -15 33 -23 17 -8 54 -24 81 -36 26 -12 58 -20 70 -18 21 3 21 4 1
12 -83 36 -217 124 -262 173 -29 30 -53 60 -53 65 0 5 -6 23 -14 40 -8 18 -17
39 -19 47 -3 8 -6 -12 -6 -46z"/>
<path d="M398 333 c7 -3 16 -2 19 1 4 3 -2 6 -13 5 -11 0 -14 -3 -6 -6z"/>
</g>
</svg>
